<svg id="Capa_1" enable-background="new 0 0 512 512" height="512" viewBox="0 0 512 512" width="512" xmlns="http://www.w3.org/2000/svg"><path d="m240 426.54h-33.326c-7.918 0-15.362-3.083-20.96-8.682l-27.244-27.244c-33.413-33.413-77.838-51.814-125.093-51.814-10.133 0-18.377-8.244-18.377-18.378v-26.982c0-28.097 22.858-50.955 50.955-50.955h13.378c4.143 0 7.5-3.357 7.5-7.5s-3.357-7.5-7.5-7.5h-13.378c-36.368 0-65.955 29.587-65.955 65.955v26.981c0 18.404 14.974 33.378 33.378 33.378 43.247 0 83.905 16.841 114.484 47.422l27.244 27.244c8.432 8.431 19.643 13.074 31.567 13.074h33.327c4.143 0 7.5-3.357 7.5-7.5s-3.357-7.499-7.5-7.499z"/><path d="m334.834 392.141c4.426-5.647 6.751-12.672 6.488-20.039-.434-12.217-8.385-22.729-19.334-27.264 1.031-3.3 1.521-6.766 1.396-10.296-.581-16.35-14.624-29.65-31.303-29.65h-11.309c.58-2.571.849-5.221.753-7.909-.581-16.35-14.623-29.65-31.302-29.65h-54.343l-16.245-16.245c-15.222-15.221-35.458-23.603-56.983-23.603h-9.318c-4.143 0-7.5 3.357-7.5 7.5s3.357 7.5 7.5 7.5h9.318c17.519 0 33.989 6.822 46.377 19.21l68.406 68.406c3.075 3.075 4.769 7.165 4.767 11.515-.003 4.353-1.701 8.442-4.782 11.518l-.43.429c-10.17 10.149-26.287 11.187-37.652 2.489l-64.803-64.803c-2.93-2.928-7.678-2.928-10.607 0-2.929 2.93-2.929 7.678 0 10.607l8.042 8.042h-12.663c-4.143 0-7.5 3.357-7.5 7.5s3.357 7.5 7.5 7.5h27.663l67.919 67.918c1.406 1.406 3.313 2.196 5.303 2.196h89.829c8.697 0 16.015 6.811 16.313 15.182.153 4.329-1.412 8.423-4.409 11.528-3 3.107-7.028 4.818-11.346 4.818h-36.579c-4.143 0-7.5 3.357-7.5 7.5s3.357 7.5 7.5 7.5h36.578c8.425 0 16.287-3.339 22.139-9.402 5.85-6.061 8.906-14.043 8.606-22.477-.233-6.55-2.63-12.608-6.489-17.52zm-26.44-57.066c.091 2.582-.442 5.095-1.535 7.377h-49.677c.007-.276.021-.552.021-.829.004-8.175-3.115-15.866-8.781-21.73h43.66c8.696-.001 16.014 6.811 16.312 15.182zm-58.17-52.742c8.696 0 16.014 6.812 16.312 15.184.092 2.582-.441 5.094-1.535 7.376h-31.56l-22.56-22.56zm-26.926 97.678-3.205-3.205c10.063-.777 19.875-5.024 27.492-12.626l.43-.429c1.915-1.911 3.547-4.029 4.886-6.3h57.12c8.697 0 16.015 6.811 16.312 15.183.134 3.757-1.046 7.337-3.289 10.225-3.986-1.824-8.402-2.848-13.023-2.848z"/><path d="m478.623 158.202c-16.623 0-33.111-2.56-49.007-7.608-3.951-1.249-8.164.931-9.419 4.878-1.254 3.948.931 8.165 4.878 9.419 17.366 5.515 35.383 8.312 53.548 8.312 10.133 0 18.377 8.244 18.377 18.377v26.982c0 28.097-22.858 50.955-50.955 50.955h-56.697c-17.519 0-33.989-6.822-46.377-19.211l-68.406-68.406c-3.076-3.076-4.77-7.165-4.768-11.516.003-4.353 1.701-8.443 4.782-11.518l.43-.429c10.175-10.15 26.296-11.187 37.658-2.482l64.797 64.797c1.465 1.464 3.385 2.196 5.304 2.196s3.839-.732 5.304-2.196c2.929-2.93 2.929-7.678 0-10.607l-8.042-8.042h12.663c4.143 0 7.5-3.357 7.5-7.5s-3.357-7.5-7.5-7.5h-27.663l-67.919-67.917c-1.406-1.406-3.313-2.196-5.303-2.196h-89.829c-8.697 0-16.015-6.812-16.313-15.183-.153-4.329 1.412-8.423 4.409-11.528 3-3.107 7.028-4.818 11.346-4.818h103.904c7.918 0 15.361 3.083 20.96 8.681l27.244 27.246c11.599 11.598 24.768 21.529 39.143 29.52 3.619 2.012 8.186.709 10.199-2.912 2.012-3.62.708-8.187-2.912-10.199-13.157-7.313-25.21-16.402-35.822-27.015l-27.245-27.246c-8.432-8.431-19.643-13.074-31.566-13.074h-103.904c-8.425 0-16.287 3.339-22.139 9.402-5.85 6.061-8.906 14.043-8.606 22.477.233 6.55 2.63 12.608 6.489 17.521-4.426 5.647-6.75 12.671-6.488 20.038.433 12.217 8.385 22.729 19.335 27.265-1.031 3.3-1.521 6.766-1.396 10.296.581 16.35 14.624 29.65 31.303 29.65h11.302c-.578 2.566-.842 5.214-.746 7.909.581 16.349 14.623 29.649 31.302 29.649h54.342l16.245 16.245c15.222 15.221 35.459 23.604 56.984 23.604h56.697c36.368 0 65.955-29.587 65.955-65.955v-26.982c-.001-18.407-14.974-33.379-33.378-33.379zm-289.667-29.061c3.986 1.824 8.403 2.848 13.023 2.848h86.723l3.205 3.204c-10.064.777-19.875 5.024-27.492 12.626l-.43.429c-1.916 1.912-3.548 4.03-4.887 6.301h-57.119c-8.697 0-16.015-6.811-16.312-15.184-.133-3.757 1.047-7.337 3.289-10.224zm14.65 47.785c-.091-2.582.442-5.095 1.535-7.377h49.677c-.007.276-.02.55-.021.827-.004 8.175 3.115 15.867 8.781 21.732h-43.66c-8.696.001-16.014-6.811-16.312-15.182zm58.17 52.741c-8.696 0-16.014-6.811-16.312-15.182-.092-2.589.432-5.098 1.524-7.377h31.571l22.559 22.559z"/></svg>