<svg id="Capa_1" enable-background="new 0 0 512.007 512.007" height="512" viewBox="0 0 512.007 512.007" width="512" xmlns="http://www.w3.org/2000/svg"><path id="XMLID_322_" d="m511.629 118.787c-.348-5.512-5.125-9.702-10.608-9.352-5.513.347-9.699 5.097-9.353 10.609 2.777 44.096-11.62 86.64-40.544 119.968-12.314-6.977-26.083-10.755-40.006-11.183 11.87-8.105 21.741-19.151 28.392-32.363 12.924-25.672 12.078-56.244-1.931-81.121 15.536-33.944 17.658-71.913 5.875-107.55-1.733-5.245-7.393-8.087-12.634-6.355-5.243 1.734-8.089 7.39-6.354 12.634 10.122 30.615 8.375 63.221-4.83 92.424-28.21 3.647-53.146 21.141-66.024 46.726-3.116 6.19-5.424 12.666-6.947 19.277-3.855-4.216-8.165-8.06-12.882-11.454 10.364-29.498 13.203-61.136 8.193-91.894-.887-5.451-6.021-9.151-11.478-8.263-5.451.888-9.15 6.026-8.263 11.478 4.762 29.241 1.577 59.382-9.212 87.166-.101.261-.183.524-.261.787-21.617 13.945-35.685 37.145-37.907 62.621-2.113-1.726-4.318-3.349-6.613-4.856-3.133-2.057-7.157-2.189-10.421-.339-21.11 11.973-35.878 33.308-40.503 57.565-4.397-4.558-9.332-8.655-14.754-12.174-3.009-1.953-6.833-2.145-10.023-.5-18.645 9.606-32.813 25.754-40.205 44.839-1.678-2.409-3.485-4.745-5.424-6.994-2.338-2.71-5.948-3.961-9.46-3.289-30.145 5.795-55.125 27.387-65.193 56.352-8.241 23.709-5.575 49.738 6.657 71.151-22.337 2.592-45.146 3.123-68.186 1.439-5.502-.406-10.3 3.737-10.702 9.245s3.737 10.3 9.245 10.702c9.267.677 18.524 1.013 27.76 1.013 17.669 0 35.252-1.24 52.641-3.681 6.57 29.791 28.6 54.093 57.61 63.491 8.648 2.802 17.567 4.167 26.436 4.167 21.047 0 41.792-7.695 57.841-22.146 2.659-2.395 3.837-6.028 3.087-9.527-1.353-6.312-3.408-12.377-6.068-18.114 8.343 3.048 17.203 4.837 26.303 5.168 1.04.038 2.073.057 3.109.057 29.495 0 57.268-15.278 73.041-40.39 1.904-3.03 2.043-6.847.364-10.008-1.747-3.291-3.698-6.438-5.826-9.435 1.303.06 2.609.098 3.918.098 3.883 0 7.792-.264 11.692-.803 30.376-4.193 56.447-24.456 68.042-52.879 1.352-3.314.829-7.097-1.37-9.921-3.952-5.075-8.425-9.625-13.297-13.621 6.102-1.154 12.121-2.955 17.939-5.459 28.022-12.062 47.701-38.327 51.458-68.616.449-.359.88-.748 1.273-1.194 33.064-37.486 49.543-85.607 46.403-135.496zm-337.822 281.423c-7.72 3.172-15.561 6.071-23.505 8.702 4.998-6.564 9.083-13.877 12.052-21.769 3.345 4.712 7.175 9.097 11.453 13.067zm74.275-41.455c-4.652 3.379-9.386 6.638-14.19 9.786 2.478-5.587 4.357-11.458 5.586-17.517 2.673 2.774 5.545 5.36 8.604 7.731zm55.055-49.451c1.166-4.819 1.938-9.768 2.265-14.802 2.073 1.683 4.237 3.273 6.486 4.764-2.86 3.406-5.777 6.752-8.751 10.038zm68.336-147.087c9.693-19.256 28.283-32.547 49.419-35.707 10.05 18.859 10.445 41.708.753 60.963-9.693 19.256-28.282 32.547-49.418 35.707-10.051-18.859-10.447-41.708-.754-60.963zm-76.917 66.424c.467-20.51 11.109-39.537 28.147-50.934 16.502 12.16 26.269 31.651 25.802 52.162-.467 20.51-11.109 39.537-28.147 50.934-16.502-12.16-26.268-31.651-25.802-52.162zm-58.745 60.778c.667-20.533 10.687-39.478 26.549-50.864 15.09 12.392 23.858 31.948 23.19 52.48-.667 20.533-10.687 39.479-26.549 50.864-15.089-12.391-23.858-31.948-23.19-52.48zm-69.115 45.349c1.048-20.99 12.32-40.177 29.831-51.373 16.308 12.885 25.612 33.099 24.564 54.089-1.049 20.991-12.321 40.177-29.831 51.373-13.09-10.342-21.662-25.406-23.995-41.803-.075-.651-.158-1.3-.248-1.949-.379-3.404-.495-6.859-.321-10.337zm-75.548 25.345c7.079-20.363 23.759-35.982 44.295-41.893 6.203 8.66 10.156 18.619 11.686 28.951.096.874.207 1.745.33 2.613 1.034 9.58-.001 19.411-3.254 28.771-7.079 20.363-23.76 35.982-44.296 41.893-12.444-17.373-15.839-39.971-8.761-60.335zm62.299 127.769c-20.508-6.644-36.479-22.988-42.825-43.395 3.844-2.879 7.963-5.302 12.271-7.26 7.253-1.689 14.459-3.588 21.608-5.704 8.743-.788 17.676.144 26.257 2.924 20.509 6.644 36.479 22.989 42.825 43.396-17.107 12.808-39.628 16.682-60.136 10.039zm102.161-41.413c-21.543-.784-41.374-12.141-53.057-30.035 12.953-16.998 33.545-26.875 55.101-26.098 21.543.784 41.374 12.141 53.057 30.035-12.954 16.998-33.56 26.869-55.101 26.098zm82.836-60.306c-21.347 2.951-42.848-4.812-57.445-20.42 9.822-18.979 28.409-32.273 49.764-35.221 21.36-2.951 42.849 4.812 57.447 20.42-9.824 18.979-28.411 32.273-49.766 35.221zm66.142-80.438c-19.802 8.523-42.585 6.761-60.81-4.402 4.42-20.908 18.8-38.668 38.602-47.191 19.801-8.524 42.585-6.76 60.809 4.401-4.421 20.909-18.801 38.669-38.601 47.192z"/><path id="XMLID_870_" d="m319.3 37.618c2.63 0 5.21-1.07 7.07-2.93 1.859-1.86 2.93-4.44 2.93-7.07s-1.07-5.21-2.93-7.07-4.44-2.93-7.07-2.93-5.21 1.07-7.07 2.93c-1.859 1.86-2.93 4.44-2.93 7.07s1.07 5.21 2.93 7.07c1.86 1.861 4.441 2.93 7.07 2.93z"/></svg>