<svg id="Layer_1" enable-background="new 0 0 64 64" height="512" viewBox="0 0 64 64" width="512" xmlns="http://www.w3.org/2000/svg"><g><g id="LINE_388_"><g><path d="m21.242 21.539h-9.242c-.553 0-1-.448-1-1s.447-1 1-1h9.242c.553 0 1 .448 1 1s-.447 1-1 1z"/></g></g><g id="LINE_389_"><g><path d="m33.654 17.539h-21.654c-.553 0-1-.448-1-1s.447-1 1-1h21.654c.553 0 1 .448 1 1s-.447 1-1 1z"/></g></g><g id="LWPOLYLINE_98_"><g><path d="m43.173 40.642h-4c-.553 0-1-.448-1-1v-3.681h-3.682c-.553 0-1-.448-1-1v-4c0-.552.447-1 1-1h3.682v-3.682c0-.552.447-1 1-1h4c.553 0 1 .448 1 1v3.682h3.682c.553 0 1 .448 1 1v4c0 .552-.447 1-1 1h-3.682v3.681c0 .552-.447 1-1 1zm-3-2h2v-3.681c0-.552.447-1 1-1h3.682v-2h-3.682c-.553 0-1-.448-1-1v-3.682h-2v3.682c0 .552-.447 1-1 1h-3.682v2h3.682c.553 0 1 .448 1 1z"/></g></g><g id="LWPOLYLINE_99_"><g><path d="m11.2 43.739c-.139 0-.278-.029-.409-.088-.359-.161-.591-.519-.591-.912v-6.8h-1.6c-1.984 0-3.6-1.615-3.6-3.6v-18.2c0-1.985 1.615-3.6 3.6-3.6h28.455c1.984 0 3.6 1.615 3.6 3.6v3.122c0 .552-.447 1-1 1s-1-.448-1-1v-3.122c0-.882-.718-1.6-1.6-1.6h-28.455c-.882 0-1.6.718-1.6 1.6v18.2c0 .882.718 1.6 1.6 1.6h2.6c.553 0 1 .448 1 1v5.573l7.111-6.321c.183-.163.419-.252.664-.252h4.37c.553 0 1 .448 1 1s-.447 1-1 1h-3.99l-8.491 7.547c-.186.167-.424.253-.664.253z"/></g></g><g id="LWPOLYLINE_100_"><g><path d="m52.8 53.461c-.24 0-.478-.086-.664-.252l-8.491-7.548h-16.7c-1.984 0-3.6-1.615-3.6-3.6v-18.2c0-1.985 1.615-3.6 3.6-3.6h28.455c1.984 0 3.6 1.615 3.6 3.6v18.2c0 1.985-1.615 3.6-3.6 3.6h-1.6v6.8c0 .394-.231.751-.591.912-.131.059-.271.088-.409.088zm-25.855-31.2c-.882 0-1.6.718-1.6 1.6v18.2c0 .882.718 1.6 1.6 1.6h17.079c.245 0 .481.09.664.252l7.111 6.321v-5.573c0-.552.447-1 1-1h2.601c.882 0 1.6-.718 1.6-1.6v-18.2c0-.882-.718-1.6-1.6-1.6z"/></g></g></g></svg>