<svg id="Capa_1" enable-background="new 0 0 512.004 512.004" height="512" viewBox="0 0 512.004 512.004" width="512" xmlns="http://www.w3.org/2000/svg"><g id="XMLID_2126_"><g id="XMLID_1286_"><g id="XMLID_291_"><path id="XMLID_1276_" d="m476.88 309.271-32.46-105.689c-.387-53.632-21.292-104.147-58.962-142.396-37.984-38.565-88.683-60.284-142.757-61.157-38.44-.638-76.05 9.368-108.741 28.886-4.742 2.831-6.291 8.97-3.459 13.712s8.971 6.291 13.712 3.459c29.495-17.61 63.452-26.615 98.165-26.061 100.381 1.622 182.047 84.645 182.047 185.075 0 .995.148 1.985.441 2.936l32.871 107.028h-44.854c-5.523 0-10 4.478-10 10v55.217c0 26.313-21.407 47.721-47.72 47.721h-76.375c-23.776 0-46.128-9.259-62.94-26.071-3.905-3.904-10.237-3.904-14.143 0-3.905 3.905-3.905 10.237 0 14.143 19.897 19.897 46.131 31.153 74.149 31.888l-14.692 51.287c-1.521 5.31 1.55 10.847 6.859 12.367.92.264 1.847.39 2.759.39 4.349 0 8.351-2.86 9.608-7.249l16.258-56.754h58.516c37.341 0 67.72-30.379 67.72-67.721v-45.217h34.938c6.392 0 12.237-2.948 16.036-8.089 3.799-5.143 4.901-11.595 3.024-17.705z"/><path id="XMLID_1277_" d="m54.255 201.876c.587-34.547 10.642-68.02 29.076-96.799 2.979-4.65 1.624-10.835-3.026-13.814-4.65-2.978-10.835-1.625-13.814 3.026-20.437 31.904-31.583 68.989-32.232 107.247-.66 38.791 9.422 82.081 27.661 118.771 17.534 35.274 22.221 75.311 13.197 112.735l-16.063 66.615c-1.295 5.368 2.008 10.771 7.377 12.065.788.189 1.576.28 2.353.28 4.513 0 8.608-3.077 9.713-7.658l16.063-66.615c10.124-41.985 4.893-86.849-14.73-126.325-16.86-33.914-26.182-73.836-25.575-109.528z"/><path id="XMLID_1285_" d="m96.47 57.626c-4 3.809-4.154 10.139-.345 14.138l.01.01c1.964 2.063 4.597 3.101 7.235 3.101 2.478 0 4.96-.917 6.897-2.761 4-3.809 4.149-10.144.34-14.143-3.809-4-10.139-4.155-14.137-.345z"/><path id="XMLID_1289_" d="m227.815 137.129c.711-1.402 1.677-2.678 2.869-3.792 2.81-2.622 6.346-3.863 10.242-3.595 6.428.444 12.019 6.034 12.462 12.461.335 4.871-1.846 9.423-5.836 12.176-23.575 16.267-37.649 42.667-37.649 70.621 0 8.095 3.175 15.683 8.94 21.366 5.659 5.578 13.12 8.635 21.053 8.634.147 0 .295-.001.443-.003 16.076-.23 29.339-13.83 29.565-30.316.111-8.11 4.494-15.93 11.722-20.917 21.606-14.908 33.426-39.464 31.619-65.688-2.508-36.367-31.824-65.683-68.193-68.192-20.313-1.398-40.472 5.742-55.309 19.591-6.253 5.836-11.404 12.681-15.311 20.344-4.724 9.268-4.286 20.119 1.173 29.028 5.516 9.003 15.101 14.378 25.641 14.378 11.353.002 21.533-6.167 26.569-16.096zm-35.154-8.729c-.862-1.406-2.626-5.146-.408-9.497 2.846-5.583 6.593-10.564 11.139-14.807 10.801-10.081 25.483-15.274 40.288-14.259 26.46 1.826 47.791 23.155 49.615 49.615 1.317 19.106-7.29 36.994-23.024 47.851-12.55 8.66-20.162 22.53-20.362 37.104-.079 5.764-4.5 10.516-9.854 10.592-2.739.048-5.249-.983-7.169-2.876-1.922-1.895-2.98-4.424-2.98-7.123 0-21.38 10.844-41.626 29.008-54.16 9.862-6.805 15.256-18.025 14.429-30.014-1.123-16.281-14.756-29.914-31.034-31.037-.812-.056-1.619-.084-2.422-.084-8.532 0-16.569 3.152-22.846 9.01-2.91 2.716-5.286 5.867-7.06 9.365-1.585 3.125-5.012 5.145-8.731 5.145-5.083.002-7.7-3.374-8.589-4.825z"/><path id="XMLID_1292_" d="m209.899 305.001c0 16.542 13.458 30 30 30s30-13.458 30-30-13.458-30-30-30-30 13.458-30 30zm40 0c0 5.514-4.486 10-10 10s-10-4.486-10-10 4.486-10 10-10 10 4.487 10 10z"/></g></g></g></svg>