<svg id="Layer_1" data-name="Layer 1" xmlns="http://www.w3.org/2000/svg" viewBox="0 0 450.19 37.49"><defs><style>.cls-1{fill:#252d50;}.cls-2{fill:#2d3153;}.cls-3{fill:#2a3051;}.cls-4{fill:#2e3255;}.cls-5{fill:#2e3151;}.cls-6{fill:#303453;}.cls-7{fill:#333554;}.cls-8{fill:#f4f4f4;}.cls-9{fill:#f0f0f1;}.cls-10{fill:#e5e6e9;}</style></defs><title>berlinerstadttauben</title><path class="cls-1" d="M31.9,389.36a45.88,45.88,0,0,1,13.42-.26,8.37,8.37,0,0,1,7,7.39c.36,3.81-1.42,6-6.55,8.21,1.54,1,3.14,2,4.58,3.13a11,11,0,0,1,2.92,13.53c-1,2-2.65,3.63-5,3.7-6,.19-12,.55-18.28-.07,1.07-1.29,2.43-1.17,3.52-1.35,3-.48,4.24-2.61,5.07-5.11s-.77-4.08-2.43-5.54c-2.51-2.22-5.31-3.68-8.8-3.4a2.57,2.57,0,0,1-2.51-.56c3.78-2.52,5.1-7.86,10.65-8.17a9.18,9.18,0,0,0,4.26-1.91c2.7-1.77,2.8-4.86.09-6.66a19,19,0,0,0-4-1.89A38.82,38.82,0,0,0,31.9,389.36Z" transform="translate(-24.83 -388.71)"/><path class="cls-2" d="M353,408.39c1.31-.68,2-1.08,2.66-1.38,5.17-2.19,10.07.26,11.24,5.76,1.55,7.33-3,15.49-12.36,12.87-1-.28-2.13-.73-3.16-.2-2.55,1.31-2.88-.09-2.71-2.14.53-6.48-.11-12.93-.33-19.4-.06-1.73-.34-3.31-1.83-4.44-.45-.34-1-.75-.71-1.42s1-.39,1.59-.42c5.28-.3,5.3-.31,5.59,4.92C353,404.31,353,406.07,353,408.39Zm.17,7.86q.06,1.33.12,2.65c.09,2.18.38,4.22,3.21,4.4s4.59-.93,5.32-3.61a11.68,11.68,0,0,0-.12-7,4.31,4.31,0,0,0-5.83-2.77C352.44,411.07,353,413.74,353.12,416.26Z" transform="translate(-24.83 -388.71)"/><path class="cls-2" d="M267.55,409.81c0,3.24,0,6.48,0,9.73,0,1.46.12,2.81,1.43,4s.74,2.19-.94,2.2-4.11,1.66-5.09-1.56c-.25-.82-1.17.13-1.71.41-6.7,3.39-12.66-.32-12.56-7.84.09-7.25,5.36-11.87,12.59-10.79,1.74.26,1.79-.4,1.76-1.63-.06-1.91-.33-3.68-1.95-5-1-.81-.86-1.5.59-1.58.68,0,1.36-.18,2-.24,3.62-.32,3.75-.19,3.76,3.55q0,4.42,0,8.84Zm-4.25,5.93c-.1-5.18-1.15-6.84-4.3-6.8s-5.88,3.34-5.88,7.22c0,3.58,2.23,6.24,5.25,6.27C261.77,422.45,263.39,420.26,263.3,415.73Z" transform="translate(-24.83 -388.71)"/><path class="cls-3" d="M203,397.14c1,.13,1.95.21,2.9.42a3.65,3.65,0,0,1,2.65,5.4c-.75,1.33-2,1-3,.26-.62-.43-.95-1.26-1.53-1.75-1.74-1.45-3.53-1-5.07.27s-1,2.68,0,4.14c1.63,2.22,4,3.49,6.21,4.88,3.06,1.89,4.27,4.44,3.5,8-.66,3.05-3,5.16-6.56,5.94-3,.66-5.87.1-8.79-.18-1.11-.11-1.94-.66-1.91-1.83,0-1.62-.72-3.39.49-4.8a1.65,1.65,0,0,1,2.19.08,4.76,4.76,0,0,1,1.32,1.53c1,1.89,2.34,3.18,4.63,2.92a3.93,3.93,0,0,0,3.45-2.81c.8-2.32-.51-4.13-1.95-5.49a34.16,34.16,0,0,0-5.61-3.76c-2.39-1.49-4.31-3.33-3.71-6.41a7.1,7.1,0,0,1,5.3-5.74A15.12,15.12,0,0,1,203,397.14Z" transform="translate(-24.83 -388.71)"/><path class="cls-2" d="M461.83,418.48a80.6,80.6,0,0,0,5.66-14.71c.47-1.68.91-3.54-1.32-4.54-.35-.16-.74-.37-.63-.86s.64-.68,1.13-.7c2.25-.11,4.51-.25,6.76-.25a2,2,0,0,1,1.47.78c.41.68-.39,1-.82,1.31-1.53,1.24-2.05,3.07-2.78,4.78q-3.9,9.19-7.75,18.4c-.55,1.32-1.08,2.5-2.85,2.41s-1.87-1.44-2.28-2.63c-2.11-6.21-4.24-12.42-6.34-18.63a12.63,12.63,0,0,0-3.33-5.69h10.47c-3.45,2.42-2.34,4.73-1.54,7.13C459.1,409.43,460.33,413.64,461.83,418.48Z" transform="translate(-24.83 -388.71)"/><path class="cls-3" d="M409.81,425.13h-2.06c-1.82,0-2.6-.08-1.55-2.44,1.71-3.86,1.18-8.06.09-12.1-.52-1.94-2.09-1.94-3.57-1.41a4.52,4.52,0,0,0-3.16,3.92c-.35,3.42-.7,6.88,1.44,9.94.9,1.28.32,1.76-1,1.88A18.62,18.62,0,0,1,398,425c-1.46,0-3.39.48-4.28-.25-1.46-1.21,1-2.31,1-3.78.12-4.64,1.36-9.37-1.67-13.61-.39-.55-.51-1.3.25-1.39,2.09-.24,4.54-1,6.12.72,1,1.07,1.42.68,2.3.33a11.1,11.1,0,0,1,4.2-1.24c3.24,0,5.23,1.74,5.71,5.16.45,3.2.71,6.43,1.09,9.65a3.8,3.8,0,0,0,.46,2c2.39,2.68.48,2.69-1.58,2.67h-1.76Z" transform="translate(-24.83 -388.71)"/><path class="cls-2" d="M128.81,424.84c-2.46,1-4.93.58-7.33.63-1.19,0-1.36-.71-.9-1.81,2.19-5.29,2.33-10.57-.46-15.72-.45-.83-.61-1.66.54-1.68,1.75,0,4-.36,5.13.57,1.68,1.45,2.63.64,4,.08,4.49-1.78,7.75-.1,8.74,4.64a67.34,67.34,0,0,1,.87,7.58c.15,1.65,0,3.3,1.33,4.68,1.09,1.17.37,1.73-.91,1.82-.88.06-1.77,0-2.65,0-4.37-.06-4.29,0-3.4-4.12a21.27,21.27,0,0,0-.07-8.76c-.32-1.59-.56-3.28-2.58-3.37a3.83,3.83,0,0,0-4.2,3c-.69,3.82-1.42,7.78,1.27,11.28A7.87,7.87,0,0,1,128.81,424.84Z" transform="translate(-24.83 -388.71)"/><path class="cls-4" d="M337.93,414.49c-.39-2.52.34-5.43-1.85-7.67-.29-.29-.39-.81,0-1,1.53-.87,3.24-.65,4.87-.53s1.38,1.41,1.41,2.48c.12,3.53.19,7.06.34,10.59.07,1.66.06,3.36,1.55,4.57.48.39.81.91.17,1.46s-5.72.37-6.06-.53c-.72-1.9-1.51-.87-2.31-.27a6.28,6.28,0,0,1-6.62,1,5.13,5.13,0,0,1-3.46-4.29c-.45-3-.41-6.06-.6-9.09-.09-1.5.3-3.21-1.5-4.14-.47-.24-.71-1-.22-1.21,1.54-.79,3.23-.32,4.86-.27,1.35,0,1.44,1.1,1.49,2.11.17,3.33.25,6.67.53,10,.17,2,.41,4.1,3.25,4,2.51-.1,4.14-1.93,4.16-4.62C337.93,416.2,337.93,415.42,337.93,414.49Z" transform="translate(-24.83 -388.71)"/><path class="cls-4" d="M226.92,420.92c1-4.89,4.59-6.57,9-7.43,1-.2,2.86.38,3-1.62.08-1.42-.19-2.79-1.61-3.54a3.53,3.53,0,0,0-4.35.53c-.85.79-1.47,1.88-2.9,1.7-.65-.08-1.46.28-1.82-.54a2,2,0,0,1,.32-1.95c1.49-2.26,7.56-3.76,11.29-2.67,3.38,1,3.52,3.83,3.59,6.64,0,2.26,0,4.52.06,6.78a4.25,4.25,0,0,0,1.24,3.49c.49.41,1.37.73,1.14,1.54-.28,1-1.34.79-2,.72-1.56-.17-3.57,1-4.47-1.55-.26-.74-1.15.27-1.68.55-2.66,1.39-5.28,1.9-8.15.47-1.42-.71-1.44-2.37-2.64-3.14Zm10.92-4.83c-2.7-.06-5.08,1.74-5.18,3.9,0,.93,0,1.79,1.26,1.94,1.55.18,5.05-2.45,5.31-4C239.43,416.77,239.28,415.9,237.84,416.09Z" transform="translate(-24.83 -388.71)"/><path class="cls-2" d="M318.44,415.22c.26,2.42-1,5.63,2.27,7.62a.64.64,0,0,1-.11,1.17c-1.88.59-4.6,1.19-5.44-.28-1.07-1.86-1.68-.89-2.51-.46a9,9,0,0,1-5.66,1.23c-1.92-.29-3.51-1.06-4.24-3.12s0-3.39,1.15-4.85c1.83-2.25,4.46-2.66,7-3.31,1.12-.28,2.9.19,3.08-1.49a3.75,3.75,0,0,0-1.53-3.64,4,4,0,0,0-4.2.05,1.16,1.16,0,0,0-.44.38,3.53,3.53,0,0,1-4.07,1.61.92.92,0,0,1-.63-1.17c.29-1.81,1.76-2.47,3.18-3.16l.27-.11C315,402.45,318.59,405.24,318.44,415.22ZM314.35,417c0-.49,0-1-.47-1.3-1.79-1-6.66,1.89-6.67,4a1.8,1.8,0,0,0,1.56,1.84C310.74,422,314.42,419,314.35,417Z" transform="translate(-24.83 -388.71)"/><path class="cls-2" d="M67.26,424.72c-6.43,0-10.58-4.25-10.23-9.91.38-6.06,5-10.27,10.68-9.65a8.28,8.28,0,0,1,7.13,9c-.17,1.68-1,1.85-2.4,1.71-2.74-.29-5.5-.36-8.21-.79-2.05-.32-2.12.65-1.82,2.11.66,3.17,3,4.33,6.55,3.48,1.55-.37,3.84-2,4.49.51.55,2.09-2.15,2.38-3.63,3.08A8.35,8.35,0,0,1,67.26,424.72Zm-4.49-13.21c0,.09.12.5.29.55a15.4,15.4,0,0,0,6.36.56c.18,0,.4-.38.45-.62.22-1.22-2.1-3.87-3.44-4S62.77,410,62.77,411.51Z" transform="translate(-24.83 -388.71)"/><path class="cls-2" d="M144.23,415.12c.23-4.1,2-7.29,5.6-9.12a7.93,7.93,0,0,1,8.88.85,8.08,8.08,0,0,1,2.73,3.75c1.42,3.9.74,4.88-3.35,4.88-2.26,0-4.53.08-6.78,0-1.84-.08-1.89.66-1.38,2.12,1,2.83,2.79,3.91,5.68,3.18.95-.24,1.86-.63,2.8-.9s2.27-.75,2.86.53-.64,2-1.48,2.55a9.89,9.89,0,0,1-10.58.86C145.58,422,144.46,418.8,144.23,415.12Zm8.87-2.43v0a7.63,7.63,0,0,0,1.45,0c.7-.14,1.68.48,2.08-.44s-.36-1.63-.83-2.35a3.53,3.53,0,0,0-1.74-1.48,2.64,2.64,0,0,0-3.15.81c-.68.82-1.54,1.83-1.18,2.84.45,1.3,1.85.34,2.8.6A2.25,2.25,0,0,0,153.1,412.69Z" transform="translate(-24.83 -388.71)"/><path class="cls-4" d="M438.11,415.35h-2.95c-3.07,0-3.46.65-1.93,3.3a3.94,3.94,0,0,0,4.42,2.18,21.39,21.39,0,0,0,2.26-.66c1.43-.44,3.3-1.75,4.1.27s-1.51,2.5-2.78,3.14a9.52,9.52,0,0,1-10.79-1c-3.13-2.55-4-6.22-3-10.14s3.56-6.73,7.83-7.4a8.38,8.38,0,0,1,9.57,8.09c.09,1.61-.64,2.15-2,2.18-1.57,0-3.14,0-4.71,0Zm-5.76-2.85c2.1,0,4,0,5.81,0,1.35,0,1.82-.31,1.15-1.69-.78-1.61-1.84-3.06-3.71-2.81C433.46,408.31,432.79,410.19,432.35,412.51Z" transform="translate(-24.83 -388.71)"/><path class="cls-5" d="M379.91,426.19c-5.48-.11-9.43-4.35-9.36-10a9.64,9.64,0,0,1,9.14-9.68,8.12,8.12,0,0,1,8.43,7.4c.18,1.64-.3,2.39-2,2.46-2.85.11-5.69.36-8.54.44-1.36,0-1.67.51-1.36,1.79.73,3,3.11,4.36,6,3.36,1.2-.41,2.34-1,3.53-1.46a1.63,1.63,0,0,1,2.09.59c.47.79,0,1.52-.58,2.08A10.48,10.48,0,0,1,379.91,426.19Zm3.17-12.43a5,5,0,0,0-2.7-3.9,2.67,2.67,0,0,0-3.46.73c-.78.9-1.5,2.17-1,3.2.53,1.19,1.91.3,2.91.29C380.15,414.06,381.52,413.89,383.08,413.76Z" transform="translate(-24.83 -388.71)"/><path class="cls-3" d="M100.35,425.11H98.88c-3.26,0-3.24,0-1.88-2.89a4.07,4.07,0,0,0,.46-1.68c0-6.48.32-13-.87-19.41a4.31,4.31,0,0,0-1.54-3c-1.41-1.1-.94-2,.79-2.22l.29,0c5.8-.89,6.12-.59,6.21,5.26s.29,12,.42,18a4.3,4.3,0,0,0,1.09,3.25c.55.54,1.24,1.09.87,2-.46,1.14-1.5.64-2.31.71S101,425.11,100.35,425.11Z" transform="translate(-24.83 -388.71)"/><path class="cls-2" d="M169.24,424.17l-1.17.09c-3.55.26-3.28.24-2.51-3.06,1.16-5,2.07-10.14-1-14.95-.4-.64-.49-1.28.29-1.75,1.16-.7,6,.1,6.36,1.32.45,1.49,1,.73,1.61.4a9.47,9.47,0,0,1,4.64-1.7c1.19,0,2.75-.62,3.15,1.19.28,1.28.81,2.78-.39,3.87s-2.32.28-3.38-.53A3.14,3.14,0,0,0,173,409c-1.48.9-2.43,2.27-2,3.91.8,3.2-.36,7,2.85,9.54.9.72.08,1.41-.82,1.51C171.79,424.08,170.51,424.1,169.24,424.17Z" transform="translate(-24.83 -388.71)"/><path class="cls-2" d="M82.51,424.9,81,425c-3.16.08-2.83.06-2-3,1.3-5.06,2.54-10.31-1-15.16a1.13,1.13,0,0,1,.33-1.77c1-.65,5.94.12,6.21,1.17.48,1.86,1.35.89,2.06.48a14.06,14.06,0,0,1,4.11-1.55c2.51-.53,3.68.34,3.58,3-.09,2.39-1.33,3.28-3.37,2-1.53-.94-2.9-1.61-4.61-.53s-2.07,2.79-1.7,4.63c.61,3,0,6.33,2.64,8.77.73.69.53,1.44-.67,1.54l-4.11.36Z" transform="translate(-24.83 -388.71)"/><path class="cls-6" d="M226.89,420.9a6.4,6.4,0,0,1-6.58,3.92c-3.39-.43-5-2-5.31-5.51-.26-2.84-.34-5.69-.54-8.53-.05-.74.3-1.94-.63-2.07-3.4-.46-2.82-1.34-.53-2.85a3.07,3.07,0,0,0,1.12-2.63c0-1.24,0-2.25,1.8-2.34s2,.73,2,2.05c0,3.23,2.41,2.08,4,2,1.81-.13,2.69.36,2.18,2.21-.32,1.15-1.51.89-2.27.77-2.81-.46-3.35.87-3,3.31s.33,4.9.58,7.34c.28,2.79,1.79,3.9,4.11,2.54,1.28-.75,2.15.61,3.1-.16Z" transform="translate(-24.83 -388.71)"/><path class="cls-5" d="M270.78,407.55c2.72-1.43,4.12-2.9,4.09-5.34,0-1.38,1.09-1.31,2.11-1.38,1.22-.09,1.61.55,1.56,1.56-.15,2.73,1.46,2.87,3.54,2.59,1.09-.14,2.63-.55,2.64,1.33s-1.58,1.58-2.64,1.46c-2.48-.27-3,.89-2.76,3.05.23,2.64,0,5.31.58,7.93s1.8,3.31,4.17,2.24c.87-.39,1.62-.88,2.23.17s-.27,1.59-1,2.1a7,7,0,0,1-7.26.69c-2.37-1-2.78-3.09-2.87-5.33-.09-2-.25-3.93-.27-5.89C274.9,410.26,274.93,407.83,270.78,407.55Z" transform="translate(-24.83 -388.71)"/><path class="cls-3" d="M296,424.64c-4.06,0-5.87-1.81-5.94-6Q290,414.85,290,411c0-1.48.23-3-2-3.14-.94-.06-1.43-1-.27-1.54,1.81-.81,2.29-2.25,2.49-4,.16-1.43,1.2-1.48,2.37-1.52,1.42,0,1.72.76,1.59,1.85-.24,2,.69,2.63,2.55,2.38a13.48,13.48,0,0,1,1.77,0c1.06,0,1.65.43,1.63,1.58s-.71,1.18-1.57,1.29c-4.3.5-4.31.52-4.15,4.83a53.48,53.48,0,0,0,.33,5.87c.4,2.74,1.83,3.55,4.32,2.59.76-.29,1.37-.87,2,.11s-.06,1.61-.8,2.16A6.43,6.43,0,0,1,296,424.64Z" transform="translate(-24.83 -388.71)"/><path class="cls-2" d="M114.64,413.69c.46,2.79-1.13,6.43,1.75,9.33.55.55.46,1.43-.55,1.49-2.35.14-4.7.22-7,.14-.8,0-1.58-.7-.53-1.58,1.77-1.46,1.72-3.41,1.63-5.4-.12-2.55-.23-5.11-.36-7.66,0-.49-.15-1-.17-1.46-.06-1.15-2.81-1.74-1.06-3,1.46-1,3.62-.38,5.45-.22,1,.09.85,1.18.87,1.92C114.66,409.26,114.64,411.23,114.64,413.69Z" transform="translate(-24.83 -388.71)"/><path class="cls-6" d="M453.16,421.41c.09,1.75-.29,2.82-2.25,2.73-1.8-.08-2.63-.65-2.65-2.61,0-2.15,1.25-2.07,2.69-2.07S453.66,419.6,453.16,421.41Z" transform="translate(-24.83 -388.71)"/><path class="cls-7" d="M111.43,397.68c1.91.15,3.53-.11,3.29,2.09-.15,1.39-.21,2.84-2.22,2.77-1.7-.06-2.76-.56-2.65-2.6C109.92,398.42,110.12,397.35,111.43,397.68Z" transform="translate(-24.83 -388.71)"/><path class="cls-7" d="M471.18,420.29c1.68-.22,2.59.29,2.44,2.2-.13,1.57-.51,2.55-2.38,2.5s-2.53-.75-2.56-2.62S469.57,420,471.18,420.29Z" transform="translate(-24.83 -388.71)"/><path class="cls-8" d="M353.12,416.26c-.09-2.52-.68-5.18,2.7-6.3a4.31,4.31,0,0,1,5.83,2.77,11.68,11.68,0,0,1,.12,7c-.73,2.68-2.62,3.78-5.32,3.61s-3.12-2.22-3.21-4.4Q353.19,417.58,353.12,416.26Z" transform="translate(-24.83 -388.71)"/><path class="cls-9" d="M263.3,415.73c.09,4.53-1.53,6.72-4.93,6.69-3,0-5.25-2.68-5.25-6.27,0-3.88,2.68-7.18,5.88-7.22S263.21,410.55,263.3,415.73Z" transform="translate(-24.83 -388.71)"/><path class="cls-9" d="M237.84,416.09c1.44-.19,1.59.68,1.4,1.81-.26,1.57-3.77,4.2-5.31,4-1.22-.14-1.31-1-1.26-1.94C232.76,417.83,235.14,416,237.84,416.09Z" transform="translate(-24.83 -388.71)"/><path class="cls-10" d="M314.35,417c.07,2-3.62,5-5.58,4.53a1.8,1.8,0,0,1-1.56-1.84c0-2.1,4.87-5,6.67-4C314.36,416,314.34,416.51,314.35,417Z" transform="translate(-24.83 -388.71)"/><path class="cls-9" d="M153.1,412.69a2.25,2.25,0,0,1-.58,0c-.94-.26-2.34.7-2.8-.6-.35-1,.5-2,1.18-2.84a2.64,2.64,0,0,1,3.15-.81,3.53,3.53,0,0,1,1.74,1.48c.47.72,1.22,1.44.83,2.35s-1.37.3-2.08.44a7.63,7.63,0,0,1-1.45,0Z" transform="translate(-24.83 -388.71)"/><path class="cls-10" d="M383.08,413.76c-1.56.12-2.93.3-4.29.32-1,0-2.38.9-2.91-.29-.46-1,.26-2.3,1-3.2a2.67,2.67,0,0,1,3.46-.73A5,5,0,0,1,383.08,413.76Z" transform="translate(-24.83 -388.71)"/></svg>