<svg id="Layer_1" data-name="Layer 1" xmlns="http://www.w3.org/2000/svg" viewBox="0 0 420.95 32.08"><defs><style>.cls-1{fill:#070a37;}</style></defs><title>startwithagrain1</title><path class="cls-1" d="M47,416.65c-1.21-.12-2.37-.2-3.53-.36-1-.13-1.14-.33-1.18-1.33,0-.75-.05-1.51,0-2.27s.27-.91,1-.83a1.52,1.52,0,0,1,1.33.84,7.53,7.53,0,0,0,.57,1,2.84,2.84,0,0,0,3.53,1.13,2.58,2.58,0,0,0,1.65-3,5.18,5.18,0,0,0-2-2.81c-.69-.5-1.44-.93-2.17-1.39s-1.19-.69-1.75-1.09a3.63,3.63,0,0,1-.86-5.34,5.13,5.13,0,0,1,2.58-2,10.83,10.83,0,0,1,6.69-.15c.81.24.81.26.75,1.07,0,.65-.06,1.3-.12,2s-.19.7-.79.67a1.82,1.82,0,0,1-1.78-1c-.76-1.65-3.37-1.27-4.29.25a1.51,1.51,0,0,0,.12,1.66,7.29,7.29,0,0,0,2.18,2.3c.94.57,1.85,1.18,2.74,1.83a4.1,4.1,0,0,1,1.88,4.63,5.13,5.13,0,0,1-3.81,3.94A19.07,19.07,0,0,1,47,416.65Z" transform="translate(-42.2 -391.68)"/><path class="cls-1" d="M63.54,413.64c1,.93,1,1.21,0,2a4,4,0,0,1-5.39,0A3,3,0,0,1,57,413.33c-.1-1.49-.1-3-.12-4.48s0-3.06,0-4.45c-.65-.67-1.9.25-2-1.38,1.67-.17,2.05-1.52,2.23-3l.14-1.21h2.18l.19,3.23h3.82v1.82c-1.19.51-2.41-.05-3.54.2-.07.11-.13.18-.13.24,0,2.68.07,5.35.13,8a2.85,2.85,0,0,0,.27,1.12,1.66,1.66,0,0,0,2.4.82C62.91,414,63.23,413.83,63.54,413.64Z" transform="translate(-42.2 -391.68)"/><path class="cls-1" d="M77.89,416.12a6.39,6.39,0,0,1-4,.18l-.08-1.47c-.39.27-.69.49-1,.69a5.61,5.61,0,0,1-4.89.91,2.88,2.88,0,0,1-1.54-4.55,5.09,5.09,0,0,1,3-2.06c1.29-.35,2.6-.61,4-.92a3,3,0,0,0-.72-2.82,1.8,1.8,0,0,0-.85-.52,2.75,2.75,0,0,0-3,1.11,1.05,1.05,0,0,1-1,.56c-.47,0-.94,0-1.46,0a1.78,1.78,0,0,1,.79-2.07,6.93,6.93,0,0,1,1.66-.8,10.94,10.94,0,0,1,4.68-.39,2.6,2.6,0,0,1,2.36,2,8.8,8.8,0,0,1,.33,2.23c0,1.17,0,2.33,0,3.5,0,.62,0,1.24.08,1.85a2,2,0,0,0,1.09,1.75C77.64,415.43,77.94,415.66,77.89,416.12Zm-4.38-5.3a5.8,5.8,0,0,0-2.91.56,2.88,2.88,0,0,0-1.44,1.68c-.43,1.2.22,2,1.43,1.63a7.59,7.59,0,0,0,2.13-1.18A2.37,2.37,0,0,0,73.51,410.81Z" transform="translate(-42.2 -391.68)"/><path class="cls-1" d="M84.12,405.62a26.64,26.64,0,0,1,2.83-1.37,8.1,8.1,0,0,1,2.32-.35c.71,0,.9.18,1,.89.07.51.07,1,.09,1.54a.8.8,0,0,1-.62.93c-.49.13-1,.34-1.45-.1a3.53,3.53,0,0,0-1.27-.79,2.57,2.57,0,0,0-3.12,2.4c.1,1.64.36,3.27.62,4.89a2.18,2.18,0,0,0,1.16,1.73.85.85,0,0,1,.35.66c0,.36-.33.49-.67.51-1.58.07-3.16.17-4.73.18-.88,0-1-.4-.55-1.21a6.43,6.43,0,0,0,.8-2,20.34,20.34,0,0,0-.05-7.07,1.67,1.67,0,0,0-.82-1.35.71.71,0,0,1-.37-1,.74.74,0,0,1,.84-.45c.89.07,1.78.12,2.67.23s.93.34,1,1.08C84.12,405.23,84.12,405.4,84.12,405.62Z" transform="translate(-42.2 -391.68)"/><path class="cls-1" d="M92.17,403.08c2.28-.36,2.07-2.51,2.4-4.32h2.16l.19,3.3H99c.34,0,.69,0,1,0a.78.78,0,0,1,.76.92c0,.6-.27,1-.79,1s-1.1,0-1.65,0H97.17a2.88,2.88,0,0,0-.12.57c0,2.08,0,4.17,0,6.25a14.06,14.06,0,0,0,.16,1.91c.25,1.68,1.48,2.39,2.77,1.62l.88-.56c.19.22.39.43.55.66a.67.67,0,0,1-.11.94c-1.29,1.2-2.68,1.9-4.38,1.27a3.7,3.7,0,0,1-2.65-3.76c0-1.32,0-2.64-.06-4,0-1.55,0-3.11,0-4.58-.72-.23-1.31-.4-1.87-.62C92.22,403.75,92.23,403.42,92.17,403.08Z" transform="translate(-42.2 -391.68)"/><path class="cls-1" d="M131.42,404.45c0,.61.06,1,.06,1.42,0,2.37,0,4.74,0,7.11a5.53,5.53,0,0,0,.25,1.72,4.49,4.49,0,0,0,.78,1c.17.23.44.48.44.72,0,.44-.41.49-.76.51-1.3.05-2.6.11-3.91.13a2,2,0,0,1-.8-.17c-.46-.19-.55-.59-.14-.85a2.5,2.5,0,0,0,1.14-2.29c0-2.19-.08-4.39-.19-6.58a2.06,2.06,0,0,0-1-1.82.76.76,0,0,1-.27-.59c0-.11.29-.31.45-.31C128.76,404.44,130,404.45,131.42,404.45Z" transform="translate(-42.2 -391.68)"/><path class="cls-1" d="M129.87,399.4c1.69,0,1.86.19,1.62,1.84-.16,1.13-.32,1.26-1.47,1.16l-.51-.06c-.91-.13-1-.2-1-1.08,0-.14,0-.27,0-.41C128.46,399.42,128.47,399.4,129.87,399.4Z" transform="translate(-42.2 -391.68)"/><path class="cls-1" d="M135,403.59c2.28-.35,2.07-2.43,2.4-4.19h2.16l.19,3.2h2.07c.34,0,.69,0,1,0a.77.77,0,0,1,.76.89c0,.58-.27,1-.79,1s-1.1,0-1.65,0H140a2.72,2.72,0,0,0-.12.55c0,2,0,4,0,6.06a13.24,13.24,0,0,0,.16,1.85c.25,1.63,1.48,2.32,2.77,1.57l.88-.54c.19.22.39.41.55.64a.63.63,0,0,1-.11.92c-1.29,1.16-2.68,1.85-4.38,1.23a3.6,3.6,0,0,1-2.65-3.65c0-1.28,0-2.56-.06-3.84,0-1.51,0-3,0-4.44-.72-.22-1.31-.39-1.87-.6C135.07,404.23,135.08,403.92,135,403.59Z" transform="translate(-42.2 -391.68)"/><path class="cls-1" d="M216.93,405.62a26.64,26.64,0,0,1,2.83-1.37,8.1,8.1,0,0,1,2.32-.35c.71,0,.9.18,1,.89.07.51.07,1,.09,1.54a.8.8,0,0,1-.62.93c-.49.13-1,.34-1.45-.1a3.53,3.53,0,0,0-1.27-.79,2.57,2.57,0,0,0-3.12,2.4c.1,1.64.36,3.27.62,4.89a2.18,2.18,0,0,0,1.16,1.73.85.85,0,0,1,.35.66c0,.36-.33.49-.67.51-1.58.07-3.16.17-4.73.18-.88,0-1-.4-.55-1.21a6.43,6.43,0,0,0,.8-2,20.34,20.34,0,0,0-.05-7.07,1.67,1.67,0,0,0-.82-1.35.71.71,0,0,1-.37-1,.74.74,0,0,1,.84-.45c.89.07,1.78.12,2.67.23s.93.34,1,1.08C216.93,405.23,216.93,405.4,216.93,405.62Z" transform="translate(-42.2 -391.68)"/><path class="cls-1" d="M236.47,416.12a6.39,6.39,0,0,1-4,.18l-.08-1.47c-.39.27-.69.49-1,.69a5.61,5.61,0,0,1-4.89.91,2.88,2.88,0,0,1-1.54-4.55,5.09,5.09,0,0,1,3-2.06c1.29-.35,2.6-.61,4-.92a3,3,0,0,0-.72-2.82,1.8,1.8,0,0,0-.85-.52,2.75,2.75,0,0,0-3,1.11,1.05,1.05,0,0,1-1,.56c-.47,0-.94,0-1.46,0a1.78,1.78,0,0,1,.79-2.07,6.93,6.93,0,0,1,1.66-.8,10.94,10.94,0,0,1,4.68-.39,2.6,2.6,0,0,1,2.36,2,8.8,8.8,0,0,1,.33,2.23c0,1.17,0,2.33,0,3.5,0,.62,0,1.24.08,1.85a2,2,0,0,0,1.09,1.75C236.23,415.44,236.52,415.66,236.47,416.12Zm-4.38-5.3a5.8,5.8,0,0,0-2.91.56,2.88,2.88,0,0,0-1.44,1.68c-.43,1.2.22,2,1.43,1.63a7.59,7.59,0,0,0,2.13-1.18A2.37,2.37,0,0,0,232.09,410.82Z" transform="translate(-42.2 -391.68)"/><path class="cls-1" d="M242.28,403.81c0,.61.06,1,.06,1.42,0,2.37,0,4.74,0,7.11a5.53,5.53,0,0,0,.25,1.72,4.49,4.49,0,0,0,.78,1c.17.23.44.48.44.72,0,.44-.41.49-.76.51-1.3.05-2.6.11-3.91.13a2,2,0,0,1-.8-.17c-.46-.19-.55-.59-.14-.85a2.5,2.5,0,0,0,1.14-2.29c0-2.19-.08-4.39-.19-6.58a2.06,2.06,0,0,0-1-1.82.76.76,0,0,1-.27-.59c0-.11.29-.31.45-.31C239.63,403.8,240.89,403.81,242.28,403.81Z" transform="translate(-42.2 -391.68)"/><path class="cls-1" d="M240.74,398.76c1.69,0,1.86.19,1.62,1.84-.16,1.13-.32,1.26-1.47,1.16l-.51-.06c-.91-.13-1-.2-1-1.08,0-.14,0-.27,0-.41C239.32,398.78,239.34,398.76,240.74,398.76Z" transform="translate(-42.2 -391.68)"/><path class="cls-1" d="M250.4,405.39a8.28,8.28,0,0,1,3.47-1.49,3.46,3.46,0,0,1,4.11,2.71,18.53,18.53,0,0,1,.41,2.84c.14,1.43.22,2.87.35,4.31a2,2,0,0,0,.91,1.65.7.7,0,0,1,.28.58c0,.16-.33.32-.53.36a5,5,0,0,1-1.12.1c-1.06,0-2.13-.06-3.19-.09-.34,0-.76.05-.87-.36-.05-.19.15-.48.29-.69a5.75,5.75,0,0,0,.75-2.75,18.4,18.4,0,0,0-.38-5.32,1.76,1.76,0,0,0-2.62-1.35,3.31,3.31,0,0,0-2.12,3.09c0,1,0,1.92,0,2.88a4.93,4.93,0,0,0,1.25,3.5c.41.44.3.72-.28.83a4.94,4.94,0,0,1-.82.07c-1.1,0-2.19.05-3.29,0-.28,0-.69-.08-.79-.26a1,1,0,0,1,.21-.8,4.08,4.08,0,0,0,.9-2.78c0-1.54,0-3.09-.05-4.63a6.81,6.81,0,0,0-.33-1.81,3.3,3.3,0,0,0-.69-1.1c-.2-.23-.52-.38-.4-.75s.53-.35.87-.34c.75,0,1.51.1,2.26.13C250.22,404,250.27,404,250.4,405.39Z" transform="translate(-42.2 -391.68)"/><path class="cls-1" d="M304.19,406l.93-.61a7.11,7.11,0,0,1,3.86-1.27c1.13,0,1.24.08,1.41,1.16a9.42,9.42,0,0,1,.09,1c0,.49,0,1-.57,1.19a1.31,1.31,0,0,1-1.66-.27,2.26,2.26,0,0,0-3.17-.13,2.57,2.57,0,0,0-1.13,2.58c.22,1.32.33,2.66.59,4a2.51,2.51,0,0,0,1.26,2,.76.76,0,0,1,.3.66.79.79,0,0,1-.58.45c-1.65.1-3.29.18-4.94.2-.63,0-.9-.51-.52-1a6,6,0,0,0,1.11-3.89c0-1.68-.08-3.36-.19-5a1.82,1.82,0,0,0-.94-1.72.68.68,0,0,1-.3-.89.71.71,0,0,1,.82-.47c.86.06,1.72.12,2.57.21s1.09.36,1.06,1.28C304.19,405.59,304.19,405.72,304.19,406Z" transform="translate(-42.2 -391.68)"/><path class="cls-1" d="M316.31,404.36c0,.61.06,1,.06,1.42,0,2.37,0,4.74,0,7.11a5.53,5.53,0,0,0,.25,1.72,4.49,4.49,0,0,0,.78,1c.17.23.44.48.44.72,0,.44-.41.49-.76.51-1.3.05-2.6.11-3.91.13a2,2,0,0,1-.8-.17c-.46-.19-.55-.59-.14-.85a2.5,2.5,0,0,0,1.14-2.29c0-2.19-.08-4.39-.19-6.58a2.06,2.06,0,0,0-1-1.82.76.76,0,0,1-.27-.59c0-.11.29-.31.45-.31C313.65,404.35,314.92,404.36,316.31,404.36Z" transform="translate(-42.2 -391.68)"/><path class="cls-1" d="M314.76,399.31c1.69,0,1.86.19,1.62,1.84-.16,1.13-.32,1.26-1.47,1.16l-.51-.06c-.91-.13-1-.2-1-1.08,0-.14,0-.27,0-.41C313.35,399.33,313.36,399.31,314.76,399.31Z" transform="translate(-42.2 -391.68)"/><path class="cls-1" d="M345.28,416.67a6.39,6.39,0,0,1-4,.18l-.08-1.47c-.39.27-.69.49-1,.69a5.61,5.61,0,0,1-4.89.91,2.88,2.88,0,0,1-1.54-4.55,5.09,5.09,0,0,1,3-2.06c1.29-.35,2.6-.61,4-.92a3,3,0,0,0-.72-2.82,1.8,1.8,0,0,0-.85-.52,2.75,2.75,0,0,0-3,1.11,1.05,1.05,0,0,1-1,.56c-.47,0-.94,0-1.46,0a1.78,1.78,0,0,1,.79-2.07,6.93,6.93,0,0,1,1.66-.8,10.94,10.94,0,0,1,4.68-.39,2.6,2.6,0,0,1,2.36,2,8.8,8.8,0,0,1,.33,2.23c0,1.17,0,2.33,0,3.5,0,.62,0,1.24.08,1.85a2,2,0,0,0,1.09,1.75C345,416,345.33,416.21,345.28,416.67Zm-4.38-5.3a5.8,5.8,0,0,0-2.91.56,2.88,2.88,0,0,0-1.44,1.68c-.43,1.2.22,2,1.43,1.63a7.59,7.59,0,0,0,2.13-1.18A2.37,2.37,0,0,0,340.9,411.37Z" transform="translate(-42.2 -391.68)"/><path class="cls-1" d="M345.93,403.34c2.28-.36,2.07-2.46,2.4-4.24h2.16l.19,3.23h2.07c.34,0,.69,0,1,0a.77.77,0,0,1,.76.9c0,.59-.27,1-.79,1s-1.1,0-1.65,0h-1.17a2.78,2.78,0,0,0-.12.56c0,2,0,4.09,0,6.13a13.54,13.54,0,0,0,.16,1.87c.25,1.65,1.48,2.35,2.77,1.59l.88-.55c.19.22.39.42.55.65a.65.65,0,0,1-.11.93c-1.29,1.17-2.68,1.87-4.38,1.24A3.64,3.64,0,0,1,348,413c0-1.29,0-2.59-.06-3.88,0-1.52,0-3,0-4.5-.72-.23-1.31-.39-1.87-.61C346,404,346,403.68,345.93,403.34Z" transform="translate(-42.2 -391.68)"/><path class="cls-1" d="M361.69,404.36c0,.61.06,1,.06,1.42,0,2.37,0,4.74,0,7.11a5.53,5.53,0,0,0,.25,1.72,4.49,4.49,0,0,0,.78,1c.17.23.44.48.44.72,0,.44-.41.49-.76.51-1.3.05-2.6.11-3.91.13a2,2,0,0,1-.8-.17c-.46-.19-.55-.59-.14-.85a2.5,2.5,0,0,0,1.14-2.29c0-2.19-.08-4.39-.19-6.58a2.06,2.06,0,0,0-1-1.82.76.76,0,0,1-.27-.59c0-.11.29-.31.45-.31C359,404.35,360.3,404.36,361.69,404.36Z" transform="translate(-42.2 -391.68)"/><path class="cls-1" d="M360.15,399.31c1.69,0,1.86.19,1.62,1.84-.16,1.13-.32,1.26-1.47,1.16l-.51-.06c-.91-.13-1-.2-1-1.08,0-.14,0-.27,0-.41C358.74,399.33,358.75,399.31,360.15,399.31Z" transform="translate(-42.2 -391.68)"/><path class="cls-1" d="M371.33,405.85a19.17,19.17,0,0,1,2.09-1,5.36,5.36,0,0,1,2-.39c2.18.11,3.11,1.08,3.47,2.63a23.12,23.12,0,0,1,.43,2.95c.14,1.4.21,2.81.34,4.21a2.15,2.15,0,0,0,.94,1.75.67.67,0,0,1,.25.58.81.81,0,0,1-.55.37,4.46,4.46,0,0,1-1,.07q-1.6,0-3.2-.07a2,2,0,0,1-.7-.11c-.3-.12-.44-.4-.2-.66a4.82,4.82,0,0,0,1-3.08,17.87,17.87,0,0,0-.38-5.33,1.69,1.69,0,0,0-2.36-1.4,3.37,3.37,0,0,0-2.37,3.12c0,1.07,0,2.13,0,3.2a4.72,4.72,0,0,0,1.2,3.21c.14.15.27.47.2.61a.78.78,0,0,1-.6.27c-1.41.05-2.82.09-4.23.09-.61,0-.86-.42-.45-.87,1.06-1.17,1.05-2.56,1-4,0-1.2,0-2.41-.06-3.61a7.29,7.29,0,0,0-.32-1.82,3.21,3.21,0,0,0-.69-1.1c-.21-.23-.52-.38-.41-.75s.55-.32.87-.32c.76,0,1.51,0,2.27.08C371.13,404.53,371.21,404.61,371.33,405.85Z" transform="translate(-42.2 -391.68)"/><path class="cls-1" d="M386.82,404.36c0,.61.06,1,.06,1.42,0,2.37,0,4.74,0,7.11a5.53,5.53,0,0,0,.25,1.72,4.49,4.49,0,0,0,.78,1c.17.23.44.48.44.72,0,.44-.41.49-.76.51-1.3.05-2.6.11-3.91.13a2,2,0,0,1-.8-.17c-.46-.19-.55-.59-.14-.85a2.5,2.5,0,0,0,1.14-2.29c0-2.19-.08-4.39-.19-6.58a2.06,2.06,0,0,0-1-1.82.76.76,0,0,1-.27-.59c0-.11.29-.31.45-.31C384.17,404.35,385.43,404.36,386.82,404.36Z" transform="translate(-42.2 -391.68)"/><path class="cls-1" d="M385.28,399.31c1.69,0,1.86.19,1.62,1.84-.16,1.13-.32,1.26-1.47,1.16l-.51-.06c-.91-.13-1-.2-1-1.08,0-.14,0-.27,0-.41C383.86,399.33,383.88,399.31,385.28,399.31Z" transform="translate(-42.2 -391.68)"/><path class="cls-1" d="M392.22,404.74c-.77-.52-1.79.15-2-1.22.77-.39,1.67-.55,1.91-1.65.19-.89.35-1.78.54-2.76h2.12l.2,3.23c1,0,2,0,2.88,0,.7,0,.84.15.93.81.11.88-.08,1.18-.86,1.21s-1.78,0-2.72,0a2.89,2.89,0,0,0-.12.57c0,2.12,0,4.24,0,6.35a12.33,12.33,0,0,0,.17,1.9,1.8,1.8,0,0,0,2.61,1.56c.34-.17.66-.39,1.16-.7.12.22.24.46.39.68a.76.76,0,0,1-.13,1,4.18,4.18,0,0,1-6.13.11,3.36,3.36,0,0,1-.82-2.14c-.06-1.51-.07-3-.1-4.54S392.23,406.17,392.22,404.74Z" transform="translate(-42.2 -391.68)"/><path class="cls-1" d="M421.58,416.54a6.39,6.39,0,0,1-4,.18l-.08-1.47c-.39.27-.69.49-1,.69a5.61,5.61,0,0,1-4.89.91,2.88,2.88,0,0,1-1.54-4.55,5.09,5.09,0,0,1,3-2.06c1.29-.35,2.6-.61,4-.92a3,3,0,0,0-.72-2.82,1.8,1.8,0,0,0-.85-.52,2.75,2.75,0,0,0-3,1.11,1.05,1.05,0,0,1-1,.56c-.47,0-.94,0-1.46,0a1.78,1.78,0,0,1,.79-2.07,6.93,6.93,0,0,1,1.66-.8,10.94,10.94,0,0,1,4.68-.39,2.6,2.6,0,0,1,2.36,2,8.8,8.8,0,0,1,.33,2.23c0,1.17,0,2.33,0,3.5,0,.62,0,1.24.08,1.85a2,2,0,0,0,1.09,1.75C421.34,415.86,421.63,416.08,421.58,416.54Zm-4.38-5.3a5.8,5.8,0,0,0-2.91.56,2.88,2.88,0,0,0-1.44,1.68c-.43,1.2.22,2,1.43,1.63a7.59,7.59,0,0,0,2.13-1.18A2.37,2.37,0,0,0,417.2,411.24Z" transform="translate(-42.2 -391.68)"/><path class="cls-1" d="M405.77,404.36c0,.61.06,1,.06,1.42,0,2.37,0,4.74,0,7.11a5.53,5.53,0,0,0,.25,1.72,4.49,4.49,0,0,0,.78,1c.17.23.44.48.44.72,0,.44-.41.49-.76.51-1.3.05-2.6.11-3.91.13a2,2,0,0,1-.8-.17c-.46-.19-.55-.59-.14-.85a2.5,2.5,0,0,0,1.14-2.29c0-2.19-.08-4.39-.19-6.58a2.06,2.06,0,0,0-1-1.82.76.76,0,0,1-.27-.59c0-.11.29-.31.45-.31C403.11,404.35,404.38,404.36,405.77,404.36Z" transform="translate(-42.2 -391.68)"/><path class="cls-1" d="M404.22,399.31c1.69,0,1.86.19,1.62,1.84-.16,1.13-.32,1.26-1.47,1.16l-.51-.06c-.91-.13-1-.2-1-1.08,0-.14,0-.27,0-.41C402.81,399.33,402.82,399.31,404.22,399.31Z" transform="translate(-42.2 -391.68)"/><path class="cls-1" d="M424.15,404.88c-.77-.52-1.79.15-2-1.21.77-.39,1.67-.55,1.91-1.64.19-.88.35-1.76.54-2.73h2.12l.2,3.19c1,0,2,0,2.88,0,.7,0,.84.15.93.8.11.87-.08,1.16-.86,1.19s-1.78,0-2.72,0a2.83,2.83,0,0,0-.12.56c0,2.09,0,4.19,0,6.28a12.06,12.06,0,0,0,.17,1.88,1.8,1.8,0,0,0,2.61,1.54c.34-.17.66-.39,1.16-.69.12.22.24.46.39.67a.75.75,0,0,1-.13,1,4.21,4.21,0,0,1-6.13.11,3.3,3.3,0,0,1-.82-2.12c-.06-1.5-.07-3-.1-4.49S424.17,406.3,424.15,404.88Z" transform="translate(-42.2 -391.68)"/><path class="cls-1" d="M437.36,404.36c0,.61.06,1,.06,1.42,0,2.37,0,4.74,0,7.11a5.53,5.53,0,0,0,.25,1.72,4.49,4.49,0,0,0,.78,1c.17.23.44.48.44.72,0,.44-.41.49-.76.51-1.3.05-2.6.11-3.91.13a2,2,0,0,1-.8-.17c-.46-.19-.55-.59-.14-.85a2.5,2.5,0,0,0,1.14-2.29c0-2.19-.08-4.39-.19-6.58a2.06,2.06,0,0,0-1-1.82.76.76,0,0,1-.27-.59c0-.11.29-.31.45-.31C434.71,404.35,436,404.36,437.36,404.36Z" transform="translate(-42.2 -391.68)"/><path class="cls-1" d="M435.82,399.31c1.69,0,1.86.19,1.62,1.84-.16,1.13-.32,1.26-1.47,1.16l-.51-.06c-.91-.13-1-.2-1-1.08,0-.14,0-.27,0-.41C434.41,399.33,434.42,399.31,435.82,399.31Z" transform="translate(-42.2 -391.68)"/><path class="cls-1" d="M455,410.85c.14,1.6.48,3,2,3.64a2.44,2.44,0,0,0,1.38.17,22.5,22.5,0,0,0,2.45-.75c.23-.07.44-.21.67-.27a1.35,1.35,0,0,1,1.26.53c.26.48-.06.76-.36,1.06a6.53,6.53,0,0,1-8.15.76,5.87,5.87,0,0,1-2.5-4.43,6.8,6.8,0,0,1,1.61-5.27,5.75,5.75,0,0,1,7.56-1,5.64,5.64,0,0,1,2.26,4.75c0,.64-.26.83-1,.83H455Zm5.09-1.66a5,5,0,0,0-1.27-2.44,2,2,0,0,0-2.78-.08,3.58,3.58,0,0,0-1,2.52Z" transform="translate(-42.2 -391.68)"/><path class="cls-1" d="M290,397.26a8.72,8.72,0,0,1,6.22,1.28,5.16,5.16,0,0,1,2.12,4.41,5.62,5.62,0,0,1-2.07,4.78,7.25,7.25,0,0,1-4.22,1.35c-.48,0-.6.2-.58.81,0,1.16,0,2.32,0,3.48a2.66,2.66,0,0,0,.72,2,3.05,3.05,0,0,1,.37.85c-.22.12-.44.35-.66.36-1.55,0-3.09,0-4.64-.05-.2,0-.39-.2-.58-.31a2.76,2.76,0,0,1,.32-.75,3.65,3.65,0,0,0,.87-2.73c-.07-3.71-.05-7.43-.09-11.14a10,10,0,0,0-.15-1.9,7.49,7.49,0,0,0-.55-1.2,2.75,2.75,0,0,1-.22-.93c0-.1.32-.29.5-.3C288.2,397.24,289.08,397.26,290,397.26Zm1.52,9.65a3.14,3.14,0,0,0,2.94-1.85,4,4,0,0,0,.16-3.6c-.71-1.59-1.89-1.76-3.11-2Z" transform="translate(-42.2 -391.68)"/><path class="cls-1" d="M327,412.26c.51-1.62,1.08-3.23,1.5-4.88a1.56,1.56,0,0,0-.58-1.79c-.15-.1-.17-.52-.13-.77s.33-.27.52-.27c1.23,0,2.46,0,3.69,0a.82.82,0,0,1,.64.39.94.94,0,0,1-.17.81,13.53,13.53,0,0,0-3.33,5.61c-.56,1.53-1.19,3-1.84,4.53a1.73,1.73,0,0,1-1.73,1.1,1.55,1.55,0,0,1-1.66-1.13c-.53-1.46-1-2.93-1.54-4.39-.59-1.67-1.17-3.35-1.79-5-.11-.29-.41-.5-.58-.77a1.6,1.6,0,0,1-.33-.82c0-.16.39-.41.62-.42,1.55-.06,3.1-.1,4.65-.08a1,1,0,0,1,.81.47,1.17,1.17,0,0,1-.18,1,2.07,2.07,0,0,0-.31,2.34c.45,1,.73,2,1.09,3.07.12.34.26.67.39,1Z" transform="translate(-42.2 -391.68)"/><path class="cls-1" d="M446.49,412.26c.43-1.62.91-3.23,1.26-4.88a1.73,1.73,0,0,0-.49-1.79c-.13-.1-.14-.52-.11-.77s.28-.27.44-.27c1,0,2.07,0,3.1,0a.69.69,0,0,1,.54.39,1.08,1.08,0,0,1-.14.81,14.25,14.25,0,0,0-2.8,5.61c-.47,1.53-1,3-1.55,4.53a1.47,1.47,0,0,1-1.45,1.1,1.33,1.33,0,0,1-1.4-1.13c-.45-1.46-.86-2.93-1.3-4.39-.5-1.67-1-3.35-1.5-5a5.57,5.57,0,0,0-.49-.77,1.78,1.78,0,0,1-.28-.82c0-.16.33-.41.52-.42,1.3-.06,2.61-.1,3.91-.08a.86.86,0,0,1,.68.47,1.35,1.35,0,0,1-.15,1,2.38,2.38,0,0,0-.26,2.34c.38,1,.62,2,.92,3.07.1.34.22.67.33,1Z" transform="translate(-42.2 -391.68)"/><path class="cls-1" d="M117.39,411.25c-.22.67-.38,1.18-.55,1.68-.42,1.24-.85,2.47-1.25,3.71a.69.69,0,0,1-.75.56c-1.28,0-1.27,0-1.72-1.37l-3-9.24a2.33,2.33,0,0,0-1-1.5c-.09,0-.14-.17-.29-.36a4,4,0,0,1,.54-.09c1.39,0,2.77,0,4.16,0a.87.87,0,0,1,.71.38c.07.21-.12.6-.27.85a3.06,3.06,0,0,0-.35,2.29c.27,1.28.65,2.53,1,3.8l.16,0c.28-.65.6-1.29.82-2,.47-1.48.9-3,1.31-4.49.1-.37.25-.5.58-.49,1.42,0,1.38,0,1.79,1.57s.91,3.2,1.41,4.79c.07.24.33.58.48.56a.86.86,0,0,0,.61-.51c.37-1.29.74-2.6,1-3.93a1.91,1.91,0,0,0-.63-1.79,1.46,1.46,0,0,1-.26-.88c0-.07.39-.23.6-.24,1-.07,1.92-.14,2.88-.12a1.14,1.14,0,0,1,.86.47c.22.38,0,.77-.23,1.18a19.86,19.86,0,0,0-1.47,3.22c-.78,2.34-1.46,4.73-2.16,7.1-.15.51-.37.76-.88.71a11.07,11.07,0,0,0-1.77,0c-.46,0-.66-.19-.78-.67-.39-1.47-.8-2.94-1.21-4.4C117.63,411.89,117.53,411.65,117.39,411.25Z" transform="translate(-42.2 -391.68)"/><path class="cls-1" d="M200.62,412.54a5.64,5.64,0,0,1-1.8-5.56,3,3,0,0,1,1.54-2.06,8.21,8.21,0,0,1,4.9-1.09c1.88.14,3.76.24,5.63.35.55,0,.85.32.85.82s-.33.76-.82.77-1.2,0-1.91,0a4.94,4.94,0,0,1,.67,3.88,4.42,4.42,0,0,1-4.18,3.77,12.63,12.63,0,0,1-2.51-.17,2,2,0,0,0-1.6,1.24c-.08.47.3.87,1,.91a23.23,23.23,0,0,0,2.41,0,7.73,7.73,0,0,1,3.58.44,3.64,3.64,0,0,1,1.26,6,5.41,5.41,0,0,1-4.56,2c-1.25-.11-2.49-.23-3.73-.42a5.32,5.32,0,0,1-1.53-.57,2.49,2.49,0,0,1-1.43-3.11,17.53,17.53,0,0,1,1-2.16.93.93,0,0,0,.11-.66,3,3,0,0,1,.59-3.81Zm6.22-4.48a2.22,2.22,0,0,0-1.92-2.43A2.49,2.49,0,0,0,202,407a3.73,3.73,0,0,0,.66,3.7c.91,1,3.13,1,3.68-.65C206.54,409.39,206.67,408.72,206.84,408.06Zm-3,9.62a3.43,3.43,0,0,0-2.54,1.11c-.68.76-.65,1.31.16,1.94a4.85,4.85,0,0,0,4.2,1,4.73,4.73,0,0,0,2-1c.95-.84.73-1.78-.48-2.18C206.07,418.1,204.94,417.92,203.84,417.67Z" transform="translate(-42.2 -391.68)"/><path class="cls-1" d="M272.13,410.45h-4.34c-1.14,0-1.91-.31-1.91-.76s.76-.76,1.9-.76l8.42,0c.26,0,.53,0,.78,0,.95.08,1.53.38,1.49.76s-.71.69-1.68.71-2.24,0-3.35,0h-1.32Z" transform="translate(-42.2 -391.68)"/><path class="cls-1" d="M191.36,418.87H170.75l-.11,0-.46-.18a2.55,2.55,0,0,1-.56-.31l-.34-.25c-.14-.11-.27-.23-.4-.35s-.24-.26-.35-.4-.11-.12-.16-.18l-.33-.46a4.66,4.66,0,0,1-.26-.42c-.09-.16-.16-.34-.24-.5s-.08-.14-.11-.21-.13-.34-.2-.52l0-.06c-.07-.17-.14-.34-.19-.52s-.11-.37-.16-.56l0-.06c0-.16-.09-.32-.13-.49s-.07-.39-.1-.58c0,0,0-.07,0-.11a1,1,0,0,1,0-.11c0-.19,0-.38-.05-.56a4.75,4.75,0,0,1,0-.5c0-.24,0-.48.05-.71s0-.28.06-.41.09-.41.12-.62a2.53,2.53,0,0,1,.24-.76,14.63,14.63,0,0,1,1.84-2.82c.56-.66,1.13-1.3,1.71-1.94.42-.46.87-.9,1.31-1.35a.56.56,0,0,0,.14-.23c0-.15.1-.3.14-.45a1.94,1.94,0,0,0-.61-2.05,2.08,2.08,0,0,0-1.23-.55,2.45,2.45,0,0,0-1.38.19c-.2.1-.42.18-.63.26a2.48,2.48,0,0,0-.61.29.16.16,0,0,1-.2,0,.15.15,0,0,1,0-.18c.09-.31.17-.63.28-.94a2.54,2.54,0,0,1,.76-1.07l.34-.29a.38.38,0,0,0,.15-.31,2,2,0,0,1,1.28-1.9.23.23,0,0,0,.14-.14q.17-.46.36-.92a3.39,3.39,0,0,1,.7-1.09,8.16,8.16,0,0,1,1.34-1.12,4.58,4.58,0,0,1,1.88-.71,5,5,0,0,1,1.05,0,2.6,2.6,0,0,1,.33.06l.5.09.41.06.7.15a5.61,5.61,0,0,1,.66.19,5.31,5.31,0,0,1,.7.33,11.09,11.09,0,0,1,2.14,1.5,3,3,0,0,1,.45.52l.21.29c.08.11.16.22.23.34s.22.42.33.63a5.91,5.91,0,0,1,.33.77l.13.36.15.44.12.41c0,.13.08.26.11.39s.08.35.12.53l.08.37c0,.15.06.3.09.45s.07.29.1.43,0,.19.06.29,0,.29.07.44.06.29.09.44,0,.24.06.36l.07.45c0,.13,0,.27.06.4s0,.39.07.59,0,.26,0,.39,0,.29,0,.43,0,.29.05.44,0,.38.06.56,0,.25,0,.37,0,.31,0,.47l0,.31,0,.53c0,.14,0,.28,0,.42s0,.27,0,.41,0,.33,0,.49,0,.2,0,.3,0,.3,0,.44,0,.31,0,.47,0,.23,0,.35,0,.3,0,.45l0,.54c0,.13,0,.26,0,.39s0,.3,0,.44,0,.31.05.47,0,.34.07.51a.84.84,0,0,0,0,.1c0,.16.08.32.13.48s.11.33.17.49a1.25,1.25,0,0,0,.07.13l.24.47,0,.06.25.37.26.39.12.17c.09.12.17.24.27.35l.32.36.34.36.06,0c.14.09.26.21.4.3s.35.17.51.27a1.4,1.4,0,0,0,.17.07l.4.19.38.18.65.36.34.17.46.23c.13.06.26.13.39.18a.87.87,0,0,1,.55.79C191.36,418.73,191.36,418.8,191.36,418.87Zm-12.51-2.29.09,0a7.17,7.17,0,0,0,1.44.2,7.24,7.24,0,0,0,1.44-.07,3.51,3.51,0,0,0,.83-.22l.21-.1a.7.7,0,0,0-.31-.7,2.81,2.81,0,0,0-.32-.19,1.84,1.84,0,0,1-.84-.87,2.35,2.35,0,0,1-.2-.75,17.85,17.85,0,0,1-.1-1.89c0-.72,0-1.44,0-2.15a16.83,16.83,0,0,0-.11-2.69,6.17,6.17,0,0,0-.32-1.32,2.69,2.69,0,0,0-.93-1.27,2.78,2.78,0,0,0-1.46-.49l-.93-.06a10.57,10.57,0,0,0-1.53,0,8.62,8.62,0,0,0-1.33.21,7.82,7.82,0,0,0-2.21.88,3.14,3.14,0,0,0-.56.41,1.71,1.71,0,0,0-.57,1.37,1.57,1.57,0,0,0,.08.48h1.57a.92.92,0,0,0,.68-.3,2.5,2.5,0,0,0,.22-.28,2.65,2.65,0,0,1,.57-.61,2.74,2.74,0,0,1,2.21-.54,1.72,1.72,0,0,1,1,.55,3.09,3.09,0,0,1,.84,2.28,2.58,2.58,0,0,1-.1.6l-.9.2-2.86.67a5.67,5.67,0,0,0-1.58.62,4.77,4.77,0,0,0-1.85,1.9,2.92,2.92,0,0,0-.27,2.16,2.8,2.8,0,0,0,1.59,1.88,4.33,4.33,0,0,0,1.44.38,5,5,0,0,0,1.61-.09,6.59,6.59,0,0,0,1.77-.7,15.94,15.94,0,0,0,1.39-.92l.14-.1,0,.75ZM176,396.08a1.54,1.54,0,0,0-.19-.81,1.25,1.25,0,0,0-2-.26,1.47,1.47,0,0,0,0,2,1.23,1.23,0,0,0,1.66.21A1.37,1.37,0,0,0,176,396.08Z" transform="translate(-42.2 -391.68)"/><path class="cls-1" d="M178.48,411a3.55,3.55,0,0,1,.07,1.36,2,2,0,0,1-.75,1.27,9,9,0,0,1-1.69,1.07,3.18,3.18,0,0,1-.93.3,1.24,1.24,0,0,1-.58-.05.89.89,0,0,1-.61-.8,1.82,1.82,0,0,1,.1-.8,2.91,2.91,0,0,1,1.41-1.74,5.11,5.11,0,0,1,1.22-.45,6.39,6.39,0,0,1,1.69-.15Z" transform="translate(-42.2 -391.68)"/><path class="cls-1" d="M149.33,407.81a6,6,0,0,1,3.06-1.36,3,3,0,0,1,3.53,2.36,25.12,25.12,0,0,1,.34,2.63c.11,1.15.16,2.3.28,3.45a1.72,1.72,0,0,0,.88,1.5.5.5,0,0,1,.18.44.53.53,0,0,1-.37.3,4.61,4.61,0,0,1-1,.08c-1,0-2,0-3-.07a1,1,0,0,1-.39-.07c-.25-.12-.38-.37-.16-.57a3.3,3.3,0,0,0,.82-2.19,15.21,15.21,0,0,0-.27-5,1.47,1.47,0,0,0-2.16-1.2,3.53,3.53,0,0,0-1.84,1.66.92.92,0,0,0-.08.43c0,1,0,2,0,3.06a5.42,5.42,0,0,0,.09,1,3.57,3.57,0,0,0,1.06,2.15.49.49,0,0,1,.14.42c0,.11-.24.17-.37.24s-.09,0-.13,0c-1.21,0-2.42.08-3.63.09a.67.67,0,0,1-.52-.21.6.6,0,0,1,.1-.56,2.56,2.56,0,0,0,.62-2c0-4.28,0-8.55,0-12.83a1.6,1.6,0,0,0-.75-1.46.62.62,0,0,1-.24-.53c0-.13.32-.28.5-.28.86,0,1.71.06,2.57.11.7,0,.84.21.83.92q0,3.51,0,7C149.33,407.4,149.33,407.56,149.33,407.81Z" transform="translate(-42.2 -391.68)"/></svg>