<?xml version="1.0" encoding="iso-8859-1"?>
<!-- Generator: Adobe Illustrator 18.0.0, SVG Export Plug-In . SVG Version: 6.00 Build 0)  -->
<!DOCTYPE svg PUBLIC "-//W3C//DTD SVG 1.1//EN" "http://www.w3.org/Graphics/SVG/1.1/DTD/svg11.dtd">
<svg version="1.1" id="Capa_1" xmlns="http://www.w3.org/2000/svg" xmlns:xlink="http://www.w3.org/1999/xlink" x="0px" y="0px"
	 viewBox="0 0 416.729 416.729" style="enable-background:new 0 0 416.729 416.729;" xml:space="preserve">
<path d="M405.544,120.462c-11.628-11.76-27.092-18.236-43.548-18.236c-0.002,0-0.005,0-0.007,0
	c-16.454,0.002-31.915,6.479-43.537,18.238l-24.424,24.716c-6.237-13.053-16.818-23.714-30.209-29.938l-16.345-7.606
	c-44.403-20.645-81.27-53.922-106.614-96.232c-2.175-3.632-6.403-5.501-10.555-4.664c-4.151,0.836-7.325,4.197-7.923,8.389
	l-1.412,9.88c-6.696,46.838,1.684,94.816,23.608,136.434c-42.788,14.085-88.264,15.91-132.209,5.195
	c-4.098-0.998-8.379,0.679-10.707,4.194c-2.328,3.515-2.201,8.113,0.317,11.494l5.936,7.971
	c28.063,37.688,66.468,64.932,111.062,78.785c14.433,4.484,29.107,7.439,43.852,8.867l-47.007,47.565l-72.678,54.869
	c-3.247,2.451-4.685,6.625-3.637,10.556s4.373,6.835,8.409,7.346l93.565,11.825c0.419,0.053,0.838,0.079,1.255,0.079
	c2.912,0,5.707-1.274,7.619-3.525l47.316-55.679l32.58,3.412c4.058,0.425,8.103,0.635,12.13,0.635
	c25.983-0.001,51.086-8.765,71.739-25.247c23.822-19.011,39.143-46.23,43.139-76.643l9.067-69.011
	c11.846,4.834,21.08,3.536,26.743,2.74c1.035-0.146,2.335-0.327,2.78-0.323c11.256,0.099,20.523-9.009,20.684-20.251
	c0.09-6.199,0.196-14.444,0.196-18.525C416.729,137.473,412.759,127.777,405.544,120.462z M139.077,44.601
	c26.123,34.92,60.254,62.707,99.961,81.168l16.346,7.607c11.41,5.303,19.826,15.348,23.219,27.412l-19.778,20.014l-27.545-20.818
	c-17.192-12.994-39.458-16.198-59.56-8.57l-8.174,3.102C145.3,120.982,136.816,82.737,139.077,44.601z M138.619,389.589
	l-63.796-8.063l50.49-38.118l48.257,5.053L138.619,389.589z M396.535,166.009c-0.004,0.298-0.249,0.54-0.547,0.54
	c-0.001,0-0.002,0-0.004,0c-1.882-0.013-3.757,0.245-5.7,0.518c-6.209,0.873-13.945,1.962-25.94-7.013
	c-2.844-2.128-6.604-2.588-9.875-1.208c-3.272,1.379-5.568,4.391-6.031,7.912l-11.009,83.78
	c-3.318,25.257-16.026,47.849-35.783,63.616c-19.725,15.74-44.336,22.969-69.312,20.353l-88.157-9.232l45.875-46.421
	c21.797-0.659,43.52-4.639,64.608-11.933c5.22-1.805,7.987-7.5,6.183-12.719c-1.807-5.22-7.505-7.987-12.72-6.182
	c-20.231,6.997-40.957,10.56-61.487,10.905c-0.614-0.049-2.818,0.028-3.305,0.028c-56.198,0-110.637-24.088-149.035-67.82
	c43.004,5.883,86.654,0.94,127.676-14.627l16.844-6.392c13.63-5.171,28.735-2.994,40.405,5.826l34.532,26.1
	c3.026,2.288,7.088,2.664,10.485,0.974c1.044-0.52,1.97-1.207,2.752-2.021l65.687-66.469c7.835-7.928,18.246-12.295,29.313-12.296
	c11.072-0.001,21.488,4.366,29.322,12.289c3.492,3.541,5.416,8.249,5.416,13.257C396.729,151.733,396.624,159.875,396.535,166.009z"
	/>
<g>
</g>
<g>
</g>
<g>
</g>
<g>
</g>
<g>
</g>
<g>
</g>
<g>
</g>
<g>
</g>
<g>
</g>
<g>
</g>
<g>
</g>
<g>
</g>
<g>
</g>
<g>
</g>
<g>
</g>
</svg>
