<?xml version="1.0"?>
<svg xmlns="http://www.w3.org/2000/svg" id="Outline" viewBox="0 0 512 512" width="512" height="512"><path d="M80,448.948V480a8,8,0,0,0,16,0V448c0-2.383,0-4.1-31.441-81.671C49.3,328.687,33.843,291.058,33.716,290.751A23.919,23.919,0,0,1,32,281.837V80a8.009,8.009,0,0,1,8-8H56a8.009,8.009,0,0,1,8,8V185.376A24.039,24.039,0,0,0,48,208a8.026,8.026,0,0,0,.155,1.569l16,80a8,8,0,0,0,.9,2.4l32,56a8,8,0,1,0,13.892-7.938L79.59,285.158,64.027,207.342A8.011,8.011,0,0,1,72,200H87.755c1.977.757,6.17,6.019,8.794,11L120.337,290.3a8,8,0,0,0,2.495,3.807c.258.219,26.109,22.142,51.579,47.619C219.168,386.494,224,402.987,224,408v72a8,8,0,0,0,16,0V408c0-5.767,0-23.313-54.343-77.657-22.007-22.006-44.269-41.39-50.67-46.894L111.663,205.7a7.958,7.958,0,0,0-.508-1.279C108.76,199.632,100.011,184,88,184H80V80A24.027,24.027,0,0,0,56,56H40A24.027,24.027,0,0,0,16,80V281.837a39.9,39.9,0,0,0,2.889,14.925C42.006,353.03,76.805,438.651,80,448.948Z"/><path d="M472,56H456a24.027,24.027,0,0,0-24,24V184h-8c-12.011,0-20.76,15.632-23.155,20.422a7.958,7.958,0,0,0-.508,1.279l-23.324,77.748c-6.4,5.5-28.663,24.888-50.67,46.894C272,384.687,272,402.233,272,408v72a8,8,0,0,0,16,0V408c0-5.013,4.832-21.506,49.589-66.275,25.47-25.477,51.321-47.4,51.579-47.619a8,8,0,0,0,2.5-3.807l23.788-79.294c2.629-4.992,6.818-10.249,8.794-11H440a8.011,8.011,0,0,1,7.973,7.342L432.41,285.158l-31.356,54.873a8,8,0,0,0,13.892,7.938l32-56a8,8,0,0,0,.9-2.4l16-80A8.026,8.026,0,0,0,464,208a24.039,24.039,0,0,0-16-22.624V80a8.009,8.009,0,0,1,8-8h16a8.009,8.009,0,0,1,8,8V281.837a23.833,23.833,0,0,1-1.688,8.845c-.155.376-15.612,38-30.871,75.647C416,443.9,416,445.617,416,448v32a8,8,0,0,0,16,0V448.948c3.195-10.3,37.994-95.919,61.139-152.256A39.8,39.8,0,0,0,496,281.837V80A24.027,24.027,0,0,0,472,56Z"/><path d="M280,24H232a8,8,0,0,0-8,8V80H176a8,8,0,0,0-8,8v48a8,8,0,0,0,8,8h48v48a8,8,0,0,0,8,8h48a8,8,0,0,0,8-8V144h48a8,8,0,0,0,8-8V88a8,8,0,0,0-8-8H288V32A8,8,0,0,0,280,24Zm48,72v32H280a8,8,0,0,0-8,8v48H240V136a8,8,0,0,0-8-8H184V96h48a8,8,0,0,0,8-8V40h32V88a8,8,0,0,0,8,8Z"/></svg>
